<svg width="412" height="133" xmlns="http://www.w3.org/2000/svg" clip-rule="evenodd" xml:space="preserve" version="1.1">

 <g>
  <title>Layer 1</title>
  <g id="svg_3">
   <path id="svg_1" d="m88.28001,90.8995l0.032,0.05l-62.194,40.333l-10.459,-16.088l22.231,-14.537l-37.424,-57.628l0.005,-0.003l-0.009,-0.015l63.625,-41.294l10.487,16.179l-23.629,15.367l37.401,57.593l-0.066,0.043zm-34.187,-0.764l7.56,-4.91l-26.911,-41.439l-7.56,4.909l26.911,41.44z"/>
   <path id="svg_2" d="m161.93801,61.6995l-38.4,0c-0.704,0 -1.344,0.256 -1.92,0.768c-0.576,0.512 -1.088,1.12 -1.536,1.824c-0.384,0.704 -0.704,1.504 -0.96,2.4c-0.256,0.832 -0.384,1.568 -0.384,2.208l0,9.504c0,0.704 0.128,1.472 0.384,2.304c0.256,0.832 0.576,1.632 0.96,2.4c0.448,0.704 0.96,1.312 1.536,1.824c0.576,0.512 1.216,0.768 1.92,0.768l38.4,0l0,14.4l-38.4,0c-2.624,0 -5.12,-0.64 -7.488,-1.92c-2.304,-1.28 -4.32,-2.944 -6.048,-4.992c-1.728,-2.048 -3.104,-4.352 -4.128,-6.912c-1.024,-2.624 -1.536,-5.248 -1.536,-7.872l0,-9.504c0,-2.624 0.512,-5.216 1.536,-7.776c1.024,-2.56 2.4,-4.864 4.128,-6.912c1.728,-2.048 3.744,-3.712 6.048,-4.992c2.368,-1.28 4.864,-1.92 7.488,-1.92l38.4,0l0,14.4zm28.8,4.8l23.52,0c-0.384,-1.152 -0.96,-2.24 -1.728,-3.264c-0.768,-1.024 -1.632,-1.536 -2.592,-1.536l-19.2,0c-0.704,0 -1.344,0.256 -1.92,0.768c-0.576,0.512 -1.088,1.12 -1.536,1.824c-0.384,0.704 -0.704,1.504 -0.96,2.4c-0.256,0.832 -0.384,1.568 -0.384,2.208l0,9.504c0,0.704 0.128,1.472 0.384,2.304c0.256,0.832 0.576,1.632 0.96,2.4c0.448,0.704 0.96,1.312 1.536,1.824c0.576,0.512 1.216,0.768 1.92,0.768l28.8,0l0,14.4l-28.8,0c-2.624,0 -5.12,-0.64 -7.488,-1.92c-2.304,-1.28 -4.32,-2.944 -6.048,-4.992c-1.728,-2.048 -3.104,-4.352 -4.128,-6.912c-1.024,-2.624 -1.536,-5.248 -1.536,-7.872l0,-9.504c0,-2.624 0.512,-5.216 1.536,-7.776c1.024,-2.56 2.4,-4.864 4.128,-6.912c1.728,-2.048 3.744,-3.712 6.048,-4.992c2.368,-1.28 4.864,-1.92 7.488,-1.92l19.2,0c2.624,0 5.088,0.64 7.392,1.92c2.368,1.28 4.416,2.944 6.144,4.992c1.728,2.048 3.104,4.384 4.128,7.008c1.024,2.56 1.536,5.152 1.536,7.776l0,11.904l-38.4,0l0,-14.4zm48,-33.6l14.4,0l0,45.6c0,0.704 0.128,1.472 0.384,2.304c0.256,0.832 0.576,1.6 0.96,2.304c0.448,0.704 0.96,1.312 1.536,1.824c0.576,0.512 1.216,0.768 1.92,0.768l19.2,0l0,14.4l-19.2,0c-2.624,0 -5.12,-0.64 -7.488,-1.92c-2.304,-1.28 -4.32,-2.944 -6.048,-4.992c-1.728,-2.048 -3.104,-4.352 -4.128,-6.912c-1.024,-2.624 -1.536,-5.248 -1.536,-7.872l0,-45.504zm19.2,14.4l14.4,0l0,14.4l-14.4,0l0,-14.4zm48,14.4c-0.704,0 -1.344,0.256 -1.92,0.768c-0.576,0.512 -1.088,1.12 -1.536,1.824c-0.384,0.704 -0.704,1.504 -0.96,2.4c-0.256,0.832 -0.384,1.568 -0.384,2.208l0,9.6c0,0.704 0.128,1.472 0.384,2.304c0.256,0.832 0.576,1.6 0.96,2.304c0.448,0.704 0.96,1.312 1.536,1.824c0.576,0.512 1.216,0.768 1.92,0.768l19.2,0l0,14.4l-19.2,0c-2.624,0 -5.12,-0.64 -7.488,-1.92c-2.304,-1.28 -4.32,-2.944 -6.048,-4.992c-1.728,-2.048 -3.104,-4.352 -4.128,-6.912c-1.024,-2.624 -1.536,-5.248 -1.536,-7.872l0,-9.504c0,-2.624 0.512,-5.216 1.536,-7.776c1.024,-2.56 2.4,-4.864 4.128,-6.912c1.728,-2.048 3.744,-3.712 6.048,-4.992c2.368,-1.28 4.864,-1.92 7.488,-1.92l38.4,0l0,52.8l-14.4,0l0,-38.4l-24,0zm67.2,0c-1.344,0 -2.496,0.064 -3.456,0.192c-0.896,0.128 -1.344,0.864 -1.344,2.208c0,1.344 0.448,2.08 1.344,2.208c0.96,0.128 2.112,0.192 3.456,0.192l19.2,0c2.624,0 5.088,0.384 7.392,1.152c2.368,0.768 4.416,1.888 6.144,3.36c1.728,1.408 3.104,3.168 4.128,5.28c1.024,2.048 1.536,4.384 1.536,7.008c0,2.624 -0.512,4.992 -1.536,7.104c-1.024,2.048 -2.4,3.808 -4.128,5.28c-1.728,1.408 -3.776,2.496 -6.144,3.264c-2.304,0.768 -4.768,1.152 -7.392,1.152l-33.6,0l0,-14.4l33.6,0c1.344,0 2.464,-0.064 3.36,-0.192c0.96,-0.128 1.44,-0.864 1.44,-2.208c0,-1.344 -0.48,-2.08 -1.44,-2.208c-0.896,-0.128 -2.016,-0.192 -3.36,-0.192l-19.2,0c-2.624,0 -5.12,-0.384 -7.488,-1.152c-2.304,-0.768 -4.32,-1.856 -6.048,-3.264c-1.728,-1.472 -3.104,-3.232 -4.128,-5.28c-1.024,-2.112 -1.536,-4.48 -1.536,-7.104c0,-2.624 0.512,-4.96 1.536,-7.008c1.024,-2.112 2.4,-3.872 4.128,-5.28c1.728,-1.472 3.744,-2.592 6.048,-3.36c2.368,-0.768 4.864,-1.152 7.488,-1.152l33.6,0l0,14.4l-33.6,0z"/>
  </g>
 </g>
</svg>